<?xml version="1.0" encoding="UTF-8" standalone="no"?>
<!DOCTYPE svg PUBLIC "-//W3C//DTD SVG 1.1//EN"
 "http://www.w3.org/Graphics/SVG/1.1/DTD/svg11.dtd">
<!-- Generated by graphviz version 12.2.1 (0)
 -->
<!-- Title: RepX Topology Pages: 1 -->
<svg width="532pt" height="118pt"
 viewBox="0.00 0.00 532.00 118.00" xmlns="http://www.w3.org/2000/svg" xmlns:xlink="http://www.w3.org/1999/xlink">
<g id="graph0" class="graph" transform="scale(1 1) rotate(0) translate(4 114)">
<title>RepX Topology</title>
<polygon fill="#ffffff" stroke="none" points="-4,4 -4,-114 528,-114 528,4 -4,4"/>
<g id="clust1" class="cluster">
<title>cluster_analysisrun</title>
<path fill="#ffffff" stroke="#334155" stroke-dasharray="5,2" d="M374.25,-8C374.25,-8 504,-8 504,-8 510,-8 516,-14 516,-20 516,-20 516,-90 516,-90 516,-96 510,-102 504,-102 504,-102 374.25,-102 374.25,-102 368.25,-102 362.25,-96 362.25,-90 362.25,-90 362.25,-20 362.25,-20 362.25,-14 368.25,-8 374.25,-8"/>
<text text-anchor="middle" x="439.12" y="-84.7" font-family="Times,serif" font-size="14.00">Run: analysis&#45;run</text>
</g>
<g id="clust2" class="cluster">
<title>cluster_simulationrun</title>
<path fill="#ffffff" stroke="#334155" stroke-dasharray="5,2" d="M20,-8C20,-8 339.25,-8 339.25,-8 345.25,-8 351.25,-14 351.25,-20 351.25,-20 351.25,-90 351.25,-90 351.25,-96 345.25,-102 339.25,-102 339.25,-102 20,-102 20,-102 14,-102 8,-96 8,-90 8,-90 8,-20 8,-20 8,-14 14,-8 20,-8"/>
<text text-anchor="middle" x="179.62" y="-84.7" font-family="Times,serif" font-size="14.00">Run: simulation&#45;run</text>
</g>
<!-- analysisrun_simpleplotter11 -->
<g id="node1" class="node">
<title>analysisrun_simpleplotter11</title>
<path fill="#f8fafc" stroke="black" d="M488,-60.25C488,-60.25 390.25,-60.25 390.25,-60.25 384.25,-60.25 378.25,-54.25 378.25,-48.25 378.25,-48.25 378.25,-35.75 378.25,-35.75 378.25,-29.75 384.25,-23.75 390.25,-23.75 390.25,-23.75 488,-23.75 488,-23.75 494,-23.75 500,-29.75 500,-35.75 500,-35.75 500,-48.25 500,-48.25 500,-54.25 494,-60.25 488,-60.25"/>
<text text-anchor="middle" x="439.12" y="-44.85" font-family="Helvetica, Arial, sans-serif" font-size="12.00">simple&#45;plotter&#45;1.1</text>
<text text-anchor="middle" x="439.12" y="-30.6" font-family="Helvetica, Arial, sans-serif" font-size="12.00">(x1)</text>
</g>
<!-- simulationrun_simpleproducer11 -->
<g id="node2" class="node">
<title>simulationrun_simpleproducer11</title>
<path fill="#eff6ff" stroke="black" d="M148,-60.25C148,-60.25 36,-60.25 36,-60.25 30,-60.25 24,-54.25 24,-48.25 24,-48.25 24,-35.75 24,-35.75 24,-29.75 30,-23.75 36,-23.75 36,-23.75 148,-23.75 148,-23.75 154,-23.75 160,-29.75 160,-35.75 160,-35.75 160,-48.25 160,-48.25 160,-54.25 154,-60.25 148,-60.25"/>
<text text-anchor="middle" x="92" y="-44.85" font-family="Helvetica, Arial, sans-serif" font-size="12.00">simple&#45;producer&#45;1.1</text>
<text text-anchor="middle" x="92" y="-30.6" font-family="Helvetica, Arial, sans-serif" font-size="12.00">(x1)</text>
</g>
<!-- simulationrun_simplesummer11 -->
<g id="node3" class="node">
<title>simulationrun_simplesummer11</title>
<path fill="#f8fafc" stroke="black" d="M323.25,-60.25C323.25,-60.25 215,-60.25 215,-60.25 209,-60.25 203,-54.25 203,-48.25 203,-48.25 203,-35.75 203,-35.75 203,-29.75 209,-23.75 215,-23.75 215,-23.75 323.25,-23.75 323.25,-23.75 329.25,-23.75 335.25,-29.75 335.25,-35.75 335.25,-35.75 335.25,-48.25 335.25,-48.25 335.25,-54.25 329.25,-60.25 323.25,-60.25"/>
<text text-anchor="middle" x="269.12" y="-44.85" font-family="Helvetica, Arial, sans-serif" font-size="12.00">simple&#45;summer&#45;1.1</text>
<text text-anchor="middle" x="269.12" y="-30.6" font-family="Helvetica, Arial, sans-serif" font-size="12.00">(x1)</text>
</g>
<!-- simulationrun_simpleproducer11&#45;&gt;simulationrun_simplesummer11 -->
<g id="edge1" class="edge">
<title>simulationrun_simpleproducer11&#45;&gt;simulationrun_simplesummer11</title>
<path fill="none" stroke="#000000" stroke-width="1.2" d="M160.46,-42C171.51,-42 183.02,-42 194.23,-42"/>
<polygon fill="#000000" stroke="#000000" stroke-width="1.2" points="193.9,-44.45 200.9,-42 193.9,-39.55 193.9,-44.45"/>
</g>
<!-- simulationrun_simplesummer11&#45;&gt;analysisrun_simpleplotter11 -->
<g id="edge2" class="edge">
<title>simulationrun_simplesummer11&#45;&gt;analysisrun_simpleplotter11</title>
<path fill="none" stroke="#64748b" stroke-width="1.2" stroke-dasharray="5,2" d="M351.25,-42C357.19,-42 363.16,-42 369.03,-42"/>
<polygon fill="#64748b" stroke="#64748b" stroke-width="1.2" points="368.99,-44.45 375.99,-42 368.99,-39.55 368.99,-44.45"/>
</g>
</g>
</svg>
